<?xml version="1.0" encoding="UTF-8"?>
<!DOCTYPE svg PUBLIC "-//W3C//DTD SVG 1.1//EN" "http://www.w3.org/Graphics/SVG/1.1/DTD/svg11.dtd">
<svg xmlns="http://www.w3.org/2000/svg" version="1.1" width="874px" height="855px" style="shape-rendering:geometricPrecision; text-rendering:geometricPrecision; image-rendering:optimizeQuality; fill-rule:evenodd; clip-rule:evenodd" xmlns:xlink="http://www.w3.org/1999/xlink">
<g><path style="opacity:1" fill="#3abcf7" d="M 138.5,-0.5 C 338.5,-0.5 538.5,-0.5 738.5,-0.5C 801.061,10.225 838.561,46.8917 851,109.5C 852.659,318.809 852.992,528.142 852,737.5C 843.807,795.659 811.974,833.493 756.5,851C 749.436,852.66 742.436,853.827 735.5,854.5C 538.5,854.5 341.5,854.5 144.5,854.5C 90.4689,848.541 53.3022,820.207 33,769.5C 26.9838,752.63 24.8171,735.296 26.5,717.5C 44.9444,698.871 66.611,685.704 91.5,678C 120.261,670.148 149.594,665.815 179.5,665C 188.577,663.795 196.243,659.962 202.5,653.5C 206.006,647.139 207.673,640.306 207.5,633C 206.621,621.804 205.455,610.638 204,599.5C 200.704,581.848 205.037,566.515 217,553.5C 220.328,548.179 220.328,542.846 217,537.5C 212.166,531.005 207,524.838 201.5,519C 205.565,513.946 210.565,509.946 216.5,507C 221.442,503.405 224.775,498.738 226.5,493C 225.701,488.9 224.201,485.066 222,481.5C 216.907,476.11 214.24,469.776 214,462.5C 215.479,457.856 217.979,453.856 221.5,450.5C 229.539,442.802 238.205,435.802 247.5,429.5C 258.184,420.014 259.351,409.348 251,397.5C 230.79,373.292 212.123,347.958 195,321.5C 182.069,300.024 176.069,276.691 177,251.5C 170.673,187.985 149.507,130.319 113.5,78.5C 99.9442,61.7822 85.2775,46.2822 69.5,32C 70.1007,30.395 71.1007,29.0616 72.5,28C 92.003,12.56 114.003,3.06 138.5,-0.5 Z M 283.5,143.5 C 363.167,143.333 442.834,143.5 522.5,144C 539.545,144.794 556.545,146.128 573.5,148C 613.367,154.44 645.367,173.94 669.5,206.5C 684.131,227.628 693.631,250.962 698,276.5C 703.237,311.337 701.571,346.004 693,380.5C 672.739,441.113 631.572,477.947 569.5,491C 556.89,492.664 544.223,493.997 531.5,495C 485.604,495.983 439.771,496.816 394,497.5C 393.833,568.502 393.333,639.502 392.5,710.5C 391.707,710.931 390.873,711.265 390,711.5C 354.764,711.815 319.597,711.482 284.5,710.5C 283.5,521.501 283.167,332.501 283.5,143.5 Z M 696.5,474.5 C 721.153,474.86 745.153,478.693 768.5,486C 777.698,490.212 783.198,497.379 785,507.5C 788.472,523.024 790.972,538.691 792.5,554.5C 789.762,554.851 787.096,555.518 784.5,556.5C 781.783,541.871 778.949,527.204 776,512.5C 774.462,506.588 771.295,501.755 766.5,498C 745.67,488.805 723.67,484.638 700.5,485.5C 681.383,485.556 662.716,488.389 644.5,494C 634.526,497.311 628.36,504.144 626,514.5C 623.235,527.757 620.902,541.091 619,554.5C 618.692,555.308 618.192,555.975 617.5,556.5C 615.167,555.833 612.833,555.167 610.5,554.5C 611.575,539.477 613.742,524.477 617,509.5C 619.216,496.287 626.716,487.787 639.5,484C 658.248,478.586 677.248,475.42 696.5,474.5 Z M 591.5,557.5 C 599.174,557.334 606.841,557.5 614.5,558C 615.667,559.167 616.833,560.333 618,561.5C 618.83,567.528 618.664,573.528 617.5,579.5C 612.132,581.698 606.465,582.698 600.5,582.5C 596.627,582.701 592.961,582.034 589.5,580.5C 587.478,574.68 586.978,568.68 588,562.5C 588.997,560.677 590.164,559.01 591.5,557.5 Z M 787.5,557.5 C 795.174,557.334 802.841,557.5 810.5,558C 812,558.833 813.167,560 814,561.5C 814.915,567.944 814.581,574.277 813,580.5C 812.25,581.126 811.416,581.626 810.5,582C 802.464,582.665 794.464,582.331 786.5,581C 785.874,580.25 785.374,579.416 785,578.5C 784.333,572.833 784.333,567.167 785,561.5C 786.085,560.264 786.918,558.931 787.5,557.5 Z M 688.5,562.5 C 718.276,559.6 744.776,567.267 768,585.5C 768.667,586.167 768.667,586.833 768,587.5C 758.772,594.615 753.105,603.948 751,615.5C 750.833,627.181 750.333,638.848 749.5,650.5C 742.814,653.374 738.814,651.374 737.5,644.5C 736.092,643.757 734.759,642.923 733.5,642C 712.167,641.333 690.833,641.333 669.5,642C 668.234,642.309 667.067,642.809 666,643.5C 664.688,645.955 663.522,648.455 662.5,651C 659.398,650.735 656.398,650.568 653.5,650.5C 652.668,640.183 652.168,629.849 652,619.5C 650.972,607.722 646.138,597.888 637.5,590C 636.552,589.517 635.552,589.351 634.5,589.5C 633.265,587.227 633.598,585.394 635.5,584C 651.466,572.406 669.133,565.239 688.5,562.5 Z M 615.5,584.5 C 632.704,586.876 643.537,596.543 648,613.5C 648.667,625.833 648.667,638.167 648,650.5C 626.473,651.284 604.973,651.618 583.5,651.5C 582.833,651.167 582.167,650.833 581.5,650.5C 580.334,639.181 580.168,627.848 581,616.5C 584.524,596.796 596.024,586.129 615.5,584.5 Z M 783.5,584.5 C 799.662,584.165 811.495,591.165 819,605.5C 819.667,608.167 820.333,610.833 821,613.5C 821.187,625.213 821.687,636.879 822.5,648.5C 820.363,650.66 817.696,651.66 814.5,651.5C 794.134,651.412 773.967,651.079 754,650.5C 753.333,638.833 753.333,627.167 754,615.5C 757.546,598.88 767.379,588.547 783.5,584.5 Z M 666.5,645.5 C 689.169,645.333 711.836,645.5 734.5,646C 735.337,647.011 735.67,648.178 735.5,649.5C 712.5,649.5 689.5,649.5 666.5,649.5C 666.5,648.167 666.5,646.833 666.5,645.5 Z M 582.5,654.5 C 609.52,654.628 636.02,654.628 662,654.5C 663.889,660.39 664.389,666.39 663.5,672.5C 642.203,672.227 620.87,672.561 599.5,673.5C 595.221,672.726 590.887,672.226 586.5,672C 582.278,669.391 580.278,665.558 580.5,660.5C 580.676,658.215 581.343,656.215 582.5,654.5 Z M 668.5,654.5 C 690.866,654.198 713.2,654.532 735.5,655.5C 735.5,661.167 735.5,666.833 735.5,672.5C 712.5,672.5 689.5,672.5 666.5,672.5C 665.947,666.208 666.614,660.208 668.5,654.5 Z M 740.5,654.5 C 766.835,654.333 793.169,654.5 819.5,655C 821.646,655.479 822.646,656.812 822.5,659C 822.815,668.268 818.315,673.102 809,673.5C 785.933,673.584 762.766,673.084 739.5,672C 738.693,666.892 738.36,661.726 738.5,656.5C 739.243,655.818 739.909,655.151 740.5,654.5 Z M 599.5,675.5 C 611.505,675.333 623.505,675.5 635.5,676C 636.944,677.126 637.61,678.626 637.5,680.5C 636.61,683.609 636.61,686.775 637.5,690C 636.479,708.643 626.812,715.31 608.5,710C 603.115,708.094 599.948,704.261 599,698.5C 598.202,690.754 598.369,683.087 599.5,675.5 Z M 766.5,675.5 C 778.505,675.333 790.505,675.5 802.5,676C 803.186,682.136 803.853,688.302 804.5,694.5C 801.679,708.762 793.013,714.262 778.5,711C 772.13,709.564 767.963,705.731 766,699.5C 765.2,691.421 765.367,683.421 766.5,675.5 Z M 666.5,677.5 C 689.5,677.5 712.5,677.5 735.5,677.5C 735.67,678.822 735.337,679.989 734.5,681C 712.159,681.833 689.826,681.666 667.5,680.5C 666.873,679.583 666.539,678.583 666.5,677.5 Z"/></g>
<g><path style="opacity:1" fill="#3bbcf6" d="M 568.5,266.5 C 568.5,267.833 569.167,268.5 570.5,268.5C 585.189,287.586 590.689,309.253 587,333.5C 585.652,339.228 584.152,344.895 582.5,350.5C 581.883,350.389 581.383,350.056 581,349.5C 578.965,352.561 577.799,355.895 577.5,359.5C 566.516,377.967 550.516,389.801 529.5,395C 511.296,397.981 492.963,399.648 474.5,400C 447.835,400.5 421.169,400.667 394.5,400.5C 393.513,346.863 393.18,293.196 393.5,239.5C 428.502,239.333 463.502,239.5 498.5,240C 512.129,240.479 525.463,242.479 538.5,246C 550.27,250.275 560.27,257.108 568.5,266.5 Z"/></g>
<g><path style="opacity:0.922" fill="#f1b171" d="M 568.5,266.5 C 569.5,266.833 570.167,267.5 570.5,268.5C 569.167,268.5 568.5,267.833 568.5,266.5 Z"/></g>
<g><path style="opacity:1" fill="#8cbacb" d="M 582.5,350.5 C 581.071,353.696 579.405,356.696 577.5,359.5C 577.799,355.895 578.965,352.561 581,349.5C 581.383,350.056 581.883,350.389 582.5,350.5 Z"/></g>
<g><path style="opacity:1" fill="#4abcf3" d="M 608.5,597.5 C 626.147,597.097 634.647,605.764 634,623.5C 628.957,638.896 618.79,644.063 603.5,639C 591.867,630.399 589.367,619.566 596,606.5C 599.613,602.621 603.78,599.621 608.5,597.5 Z"/></g>
<g><path style="opacity:1" fill="#49bcf4" d="M 802.5,634.5 C 801.167,634.5 800.5,635.167 800.5,636.5C 791.364,643.409 782.364,643.075 773.5,635.5C 763.281,622.418 764.614,610.585 777.5,600C 790.333,595.166 800.166,598.666 807,610.5C 809,616.5 809,622.5 807,628.5C 805.723,630.747 804.223,632.747 802.5,634.5 Z"/></g>
<g><path style="opacity:1" fill="#4abcee" d="M 658.5,600.5 C 686.833,600.5 715.167,600.5 743.5,600.5C 743.737,601.791 743.404,602.791 742.5,603.5C 714.833,603.5 687.167,603.5 659.5,603.5C 658.596,602.791 658.263,601.791 658.5,600.5 Z"/></g>
<g><path style="opacity:1" fill="#43bdf4" d="M 659.5,603.5 C 687.167,603.5 714.833,603.5 742.5,603.5C 744.792,605.451 745.125,607.784 743.5,610.5C 715.833,610.5 688.167,610.5 660.5,610.5C 658.583,608.354 658.25,606.021 659.5,603.5 Z"/></g>
<g><path style="opacity:0.157" fill="#f6d8b6" d="M 658.5,600.5 C 658.263,601.791 658.596,602.791 659.5,603.5C 658.25,606.021 658.583,608.354 660.5,610.5C 659.5,610.5 658.5,610.5 657.5,610.5C 657.187,606.958 657.521,603.625 658.5,600.5 Z"/></g>
<g><path style="opacity:0.125" fill="#fbe2cb" d="M 743.5,600.5 C 744.777,601.694 745.444,603.36 745.5,605.5C 745.444,607.64 744.777,609.306 743.5,610.5C 745.125,607.784 744.792,605.451 742.5,603.5C 743.404,602.791 743.737,601.791 743.5,600.5 Z"/></g>
<g><path style="opacity:1" fill="#3dbcf4" d="M 659.5,614.5 C 687.169,614.333 714.835,614.5 742.5,615C 744.787,616.427 745.12,618.261 743.5,620.5C 715.506,621.667 687.506,621.833 659.5,621C 658.232,618.837 658.232,616.67 659.5,614.5 Z"/></g>
<g><path style="opacity:1" fill="#46bcf2" d="M 659.5,634.5 C 659.598,632.447 658.931,630.78 657.5,629.5C 657.5,628.5 657.5,627.5 657.5,626.5C 685.835,626.333 714.169,626.5 742.5,627C 743.516,627.519 744.182,628.353 744.5,629.5C 743.954,631.135 743.62,632.801 743.5,634.5C 715.5,634.5 687.5,634.5 659.5,634.5 Z"/></g>
<g><path style="opacity:0.188" fill="#f5daba" d="M 657.5,629.5 C 658.931,630.78 659.598,632.447 659.5,634.5C 657.744,633.448 657.077,631.781 657.5,629.5 Z"/></g>
<g><path style="opacity:0.757" fill="#e8af72" d="M 802.5,634.5 C 802.167,635.5 801.5,636.167 800.5,636.5C 800.5,635.167 801.167,634.5 802.5,634.5 Z"/></g>
</svg>
